<svg viewBox="0 0 842.016 663.94" fill="none" stroke-linecap="square" stroke-miterlimit="10" xmlns="http://www.w3.org/2000/svg"><clipPath id="a"><path d="M0 0h842.016v663.94H0V0z"/></clipPath><g clip-path="url(#a)"><path d="M0 0h842.016v663.94H0z"/><path fill="#ccc" d="M144.183 105.528h107.36c14.064 0 25.466 17.963 25.466 40.121 0 22.159-11.402 40.122-25.466 40.122h-107.36c-14.065 0-25.466-17.963-25.466-40.122 0-22.158 11.401-40.121 25.466-40.121z" fill-rule="evenodd"/><path stroke="#cfe2f3" stroke-linejoin="round" stroke-linecap="butt" d="M144.183 105.528h107.36c14.064 0 25.466 17.963 25.466 40.121 0 22.159-11.402 40.122-25.466 40.122h-107.36 0c-14.065 0-25.466-17.963-25.466-40.122 0-22.158 11.401-40.121 25.466-40.121z"/><path fill="#fff" d="M138.114 160.05v-28.641h5.782v11.28h11.328v-11.28h5.78v28.64h-5.78v-12.515h-11.328v12.515h-5.782zm35.309 0v-23.798h-8.5v-4.843h22.75v4.843h-8.469v23.797h-5.781zm17.902 0v-28.641h8.656l5.204 19.53 5.125-19.53h8.671v28.64h-5.359v-22.547l-5.687 22.547h-5.563l-5.672-22.547v22.547h-5.375zm33.555 0v-28.407h5.781v23.578h14.375v4.828H224.88z"/><path d="M277.008 147.297c28.583 0 42.874-17.591 57.165-35.182 14.292-17.59 28.583-35.18 57.166-35.18"/><path stroke="#000" stroke-linejoin="round" stroke-linecap="butt" d="M277.008 147.297c28.583 0 42.874-17.591 57.165-35.182 14.292-17.59 28.583-35.18 57.166-35.18"/><path fill="#ccc" d="M411.32 67.052h84.24c11.035 0 19.981 9.98 19.981 22.289 0 12.31-8.946 22.289-19.981 22.289h-84.24c-11.035 0-19.981-9.98-19.981-22.29 0-12.309 8.946-22.288 19.981-22.288z" fill-rule="evenodd"/><path stroke="#cfe2f3" stroke-linejoin="round" stroke-linecap="butt" d="M411.32 67.052h84.24c11.035 0 19.981 9.98 19.981 22.289 0 12.31-8.946 22.289-19.981 22.289h-84.24 0c-11.035 0-19.981-9.98-19.981-22.29 0-12.309 8.946-22.288 19.981-22.288z"/><path fill="#666" d="M418.927 91.568l3.375 1.063q-.782 2.812-2.579 4.187-1.796 1.36-4.562 1.36-3.422 0-5.625-2.344t-2.203-6.39q0-4.297 2.203-6.657 2.219-2.375 5.828-2.375 3.156 0 5.125 1.86 1.172 1.093 1.766 3.156l-3.438.828q-.312-1.344-1.281-2.11-.953-.78-2.344-.78-1.906 0-3.094 1.374-1.187 1.375-1.187 4.438 0 3.265 1.172 4.656 1.172 1.375 3.047 1.375 1.375 0 2.375-.875 1-.89 1.422-2.766zm8.785-2.343l-2.985-.532q.5-1.812 1.72-2.671 1.234-.875 3.671-.875 2.203 0 3.281.53 1.078.516 1.516 1.329.437.797.437 2.937l-.03 3.844q0 1.64.155 2.422.157.781.594 1.672h-3.265q-.125-.328-.313-.969-.078-.297-.125-.39-.844.812-1.812 1.234-.954.406-2.032.406-1.922 0-3.031-1.047-1.11-1.047-1.11-2.64 0-1.047.5-1.875.5-.828 1.407-1.266.922-.437 2.625-.766 2.312-.437 3.203-.812v-.328q0-.953-.469-1.344-.468-.406-1.765-.406-.891 0-1.391.344-.484.343-.781 1.203zm4.406 2.672q-.64.218-2.016.515-1.359.281-1.78.563-.641.468-.641 1.172 0 .687.515 1.187.516.5 1.313.5.89 0 1.687-.578.61-.453.797-1.094.125-.422.125-1.61v-.655zm17.8 5.984h-3.296v-6.36q0-2.015-.219-2.593-.203-.594-.687-.922-.47-.328-1.125-.328-.86 0-1.547.469-.672.468-.922 1.25-.25.765-.25 2.843v5.64h-3.297V85.429h3.063v1.828q1.625-2.11 4.093-2.11 1.094 0 1.985.407.906.39 1.375 1 .468.61.64 1.39.188.766.188 2.204v7.734zm6.755 0l-5.016-12.453h3.469l2.344 6.36.671 2.124q.266-.812.344-1.078.156-.516.344-1.047l2.375-6.36h3.39l-4.953 12.454h-2.968zm12.394-8.656l-2.984-.532q.5-1.812 1.719-2.671 1.234-.875 3.671-.875 2.204 0 3.282.53 1.078.516 1.515 1.329.438.797.438 2.937l-.031 3.844q0 1.64.156 2.422.156.781.594 1.672h-3.266q-.125-.328-.313-.969-.078-.297-.125-.39-.843.812-1.812 1.234-.953.406-2.031.406-1.922 0-3.032-1.047-1.109-1.047-1.109-2.64 0-1.047.5-1.875.5-.828 1.406-1.266.922-.437 2.625-.766 2.313-.437 3.203-.812v-.328q0-.953-.468-1.344-.469-.406-1.766-.406-.89 0-1.39.344-.485.343-.782 1.203zm4.406 2.672q-.64.218-2.015.515-1.36.281-1.781.563-.641.468-.641 1.172 0 .687.516 1.187.515.5 1.312.5.89 0 1.688-.578.609-.453.796-1.094.125-.422.125-1.61v-.655zm5.317 2.437l3.312-.516q.204.97.844 1.47.656.5 1.813.5 1.28 0 1.922-.47.437-.328.437-.89 0-.375-.234-.61-.25-.234-1.11-.437-3.984-.875-5.047-1.61-1.484-1-1.484-2.796 0-1.625 1.281-2.72 1.282-1.108 3.969-1.108 2.547 0 3.781.843 1.25.828 1.719 2.453l-3.11.579q-.187-.735-.75-1.11-.562-.39-1.593-.39-1.297 0-1.86.359-.374.266-.374.672 0 .344.328.594.453.328 3.078.937 2.625.594 3.672 1.453 1.03.875 1.03 2.453 0 1.703-1.437 2.938-1.421 1.234-4.218 1.234-2.547 0-4.032-1.031-1.484-1.031-1.937-2.797z"/><path fill="#ccc" d="M599.903 89.826h84.24c11.035 0 19.981 9.98 19.981 22.29 0 12.309-8.946 22.288-19.982 22.288h-84.24c-11.035 0-19.98-9.98-19.98-22.289 0-12.31 8.945-22.289 19.98-22.289z" fill-rule="evenodd"/><path stroke="#cfe2f3" stroke-linejoin="round" stroke-linecap="butt" d="M599.903 89.826h84.24c11.035 0 19.981 9.98 19.981 22.29 0 12.309-8.946 22.288-19.982 22.288h-84.24 0c-11.035 0-19.98-9.98-19.98-22.289 0-12.31 8.945-22.289 19.98-22.289z"/><path fill="#666" d="M596.525 120.655v-17.187h5.562q3.172 0 4.125.265 1.485.39 2.47 1.688 1 1.281 1 3.344 0 1.578-.579 2.656-.562 1.078-1.453 1.703-.89.61-1.797.797-1.25.25-3.594.25h-2.265v6.484h-3.47zm3.469-14.281v4.875h1.89q2.063 0 2.75-.266.688-.265 1.078-.843.391-.579.391-1.329 0-.937-.547-1.546-.547-.61-1.39-.766-.625-.125-2.5-.125h-1.672zm12.507.14v-3.046h3.297v3.047h-3.297zm0 14.141v-12.453h3.297v12.453h-3.297zm6.012-4.422l3.281-.343q.141 1.125.829 1.78.703.641 1.609.641 1.031 0 1.734-.828.72-.843.72-2.531 0-1.594-.72-2.375-.703-.797-1.828-.797-1.422 0-2.547 1.25l-2.672-.375 1.688-8.953h8.703v3.094h-6.203l-.516 2.906q1.094-.547 2.25-.547 2.188 0 3.703 1.594 1.532 1.594 1.532 4.14 0 2.126-1.235 3.782-1.672 2.281-4.656 2.281-2.375 0-3.875-1.281t-1.797-3.438zm14.004 4.422v-3.297h3.297v3.297h-3.297zm6.606-14.14v-3.047h3.296v3.047h-3.296zm3.296 1.687v12.063q0 2.39-.312 3.359-.313.984-1.203 1.531-.875.547-2.25.547-.5 0-1.078-.094-.563-.078-1.22-.25l.58-2.812q.233.047.452.078.203.031.375.031.5 0 .813-.219.328-.218.437-.53.11-.298.11-1.829v-11.875h3.296zm2.278 8.906l3.312-.515q.203.968.844 1.468.656.5 1.813.5 1.28 0 1.921-.468.438-.328.438-.891 0-.375-.234-.61-.25-.234-1.11-.437-3.984-.875-5.047-1.61-1.484-1-1.484-2.796 0-1.625 1.281-2.719 1.281-1.11 3.969-1.11 2.547 0 3.781.845 1.25.828 1.719 2.453l-3.11.578q-.187-.735-.75-1.11-.562-.39-1.593-.39-1.297 0-1.86.36-.375.265-.375.671 0 .344.329.594.453.328 3.078.937 2.625.594 3.672 1.453 1.03.875 1.03 2.454 0 1.703-1.437 2.937-1.422 1.234-4.218 1.234-2.547 0-4.032-1.03-1.484-1.032-1.937-2.798z"/><path d="M515.543 90.13c16.095 0 24.142 5.497 32.19 10.993 8.047 5.496 16.094 10.992 32.188 10.992"/><path stroke="#000" stroke-linejoin="round" stroke-linecap="butt" d="M515.543 90.13c16.095 0 24.142 5.497 32.19 10.993 8.047 5.496 16.094 10.992 32.188 10.992"/><path d="M136.304 185.772c0 11.819-10.165 17.728-20.33 23.637-10.166 5.91-20.331 11.82-20.331 23.638"/><path stroke="#000" stroke-linejoin="round" stroke-linecap="butt" d="M136.304 185.772c0 11.819-10.165 17.728-20.33 23.637-10.166 5.91-20.331 11.82-20.331 23.638"/><path d="M205.556 350.656c0 26.378 26.378 39.567 52.756 52.756s52.756 26.378 52.756 52.756"/><path stroke="#000" stroke-linejoin="round" stroke-linecap="butt" d="M205.556 350.656c0 26.378 26.378 39.567 52.756 52.756s52.756 26.378 52.756 52.756"/><path fill="#ccc" d="M82.235 233.047h58.808c7.704 0 13.95 9.98 13.95 22.29 0 12.309-6.246 22.288-13.95 22.288H82.235c-7.704 0-13.949-9.98-13.949-22.289 0-12.31 6.245-22.289 13.95-22.289z" fill-rule="evenodd"/><path stroke="#cfe2f3" stroke-linejoin="round" stroke-linecap="butt" d="M82.235 233.047h58.808c7.704 0 13.95 9.98 13.95 22.29 0 12.309-6.246 22.288-13.95 22.288H82.235h0c-7.704 0-13.949-9.98-13.949-22.289 0-12.31 6.245-22.289 13.95-22.289z"/><path fill="#666" d="M82.998 251.423h3.078v1.828q.593-.937 1.609-1.516 1.031-.593 2.266-.593 2.172 0 3.672 1.703 1.515 1.703 1.515 4.734 0 3.125-1.531 4.86-1.516 1.718-3.672 1.718-1.031 0-1.875-.406-.844-.422-1.766-1.406v6.265h-3.296v-17.187zm3.265 6.016q0 2.093.828 3.109.828 1 2.032 1 1.14 0 1.906-.922.765-.922.765-3.016 0-1.968-.796-2.906-.782-.953-1.938-.953-1.203 0-2 .938-.797.921-.797 2.75zm19.692 6.437v-1.86q-.688.985-1.797 1.563-1.11.578-2.328.578-1.266 0-2.266-.547-.984-.562-1.438-1.546-.437-1-.437-2.766v-7.875h3.297v5.719q0 2.625.172 3.218.187.594.656.938.484.344 1.234.344.844 0 1.5-.453.672-.47.922-1.157t.25-3.36v-5.25h3.281v12.454h-3.046zm6.16.828l3.765.453q.094.657.422.907.469.343 1.485.343 1.28 0 1.937-.39.422-.25.656-.828.141-.407.141-1.516v-1.813q-1.469 2.016-3.719 2.016-2.515 0-3.969-2.125-1.156-1.672-1.156-4.172 0-3.125 1.5-4.781 1.516-1.656 3.75-1.656 2.313 0 3.813 2.03v-1.75h3.078v11.173q0 2.203-.36 3.297-.359 1.093-1.015 1.703-.656.625-1.766.969-1.094.359-2.765.359-3.157 0-4.485-1.078-1.328-1.078-1.328-2.75 0-.156.016-.39zm2.937-7.312q0 1.984.766 2.906.765.922 1.89.922 1.22 0 2.047-.938.828-.953.828-2.812 0-1.922-.796-2.86-.797-.937-2.016-.937-1.188 0-1.953.922-.766.906-.766 2.797z"/><path fill="#ccc" d="M213.748 290.2h113.328c14.846 0 26.881 13.533 26.881 30.228s-12.035 30.229-26.881 30.229H213.748c-14.847 0-26.882-13.534-26.882-30.229s12.035-30.229 26.882-30.229z" fill-rule="evenodd"/><path stroke="#cfe2f3" stroke-linejoin="round" stroke-linecap="butt" d="M213.748 290.2h113.328c14.846 0 26.881 13.533 26.881 30.228s-12.035 30.229-26.881 30.229H213.748h0c-14.847 0-26.882-13.534-26.882-30.229s12.035-30.229 26.882-30.229z"/><path fill="#666" d="M211.694 311.78h3.453v10.876q0 2.14-.375 3.28-.5 1.5-1.828 2.423-1.328.906-3.5.906-2.531 0-3.906-1.422-1.375-1.437-1.39-4.187l3.28-.375q.047 1.484.422 2.093.563.922 1.72.922 1.155 0 1.64-.656.484-.672.484-2.75v-11.11zm9.582 8.532l-2.984-.531q.5-1.813 1.719-2.672 1.234-.875 3.671-.875 2.204 0 3.282.531 1.078.516 1.515 1.328.438.797.438 2.938l-.031 3.843q0 1.641.156 2.422.156.782.594 1.672h-3.266q-.125-.328-.313-.969-.078-.296-.125-.39-.843.812-1.812 1.234-.953.406-2.031.406-1.922 0-3.032-1.046-1.109-1.047-1.109-2.641 0-1.047.5-1.875.5-.828 1.406-1.266.922-.437 2.625-.765 2.313-.438 3.203-.813v-.328q0-.953-.468-1.344-.469-.406-1.766-.406-.89 0-1.39.344-.485.344-.782 1.203zm4.406 2.672q-.64.219-2.015.515-1.36.282-1.781.563-.641.469-.641 1.172 0 .687.516 1.187.515.5 1.312.5.89 0 1.688-.578.609-.453.796-1.094.125-.421.125-1.609v-.656zm9.895 5.984l-5.016-12.453h3.47l2.343 6.36.672 2.124q.265-.812.344-1.078.156-.515.343-1.047l2.375-6.359h3.39l-4.952 12.453h-2.969zm12.395-8.656l-2.985-.531q.5-1.813 1.719-2.672 1.234-.875 3.672-.875 2.203 0 3.281.531 1.078.516 1.516 1.328.437.797.437 2.938l-.031 3.843q0 1.641.156 2.422.156.782.594 1.672h-3.266q-.125-.328-.312-.969-.078-.296-.125-.39-.844.812-1.813 1.234-.953.406-2.031.406-1.922 0-3.031-1.046-1.11-1.047-1.11-2.641 0-1.047.5-1.875.5-.828 1.407-1.266.922-.437 2.625-.765 2.312-.438 3.203-.813v-.328q0-.953-.469-1.344-.469-.406-1.766-.406-.89 0-1.39.344-.485.344-.781 1.203zm4.406 2.672q-.64.219-2.016.515-1.36.282-1.781.563-.64.469-.64 1.172 0 .687.515 1.187.516.5 1.312.5.891 0 1.688-.578.61-.453.797-1.094.125-.421.125-1.609v-.656zm5.629.39l3.375-.328q.297 1.703 1.218 2.5.938.797 2.532.797 1.672 0 2.515-.703.86-.719.86-1.672 0-.61-.36-1.031-.359-.422-1.25-.75-.609-.203-2.78-.75-2.782-.688-3.907-1.688-1.594-1.421-1.594-3.468 0-1.313.75-2.453.75-1.141 2.14-1.735 1.407-.594 3.391-.594 3.235 0 4.86 1.422 1.64 1.407 1.718 3.782l-3.468.14q-.219-1.312-.953-1.89-.735-.594-2.204-.594-1.5 0-2.359.625-.547.406-.547 1.062 0 .61.516 1.047.656.547 3.187 1.156 2.532.594 3.735 1.235 1.218.64 1.906 1.75.687 1.094.687 2.734 0 1.469-.828 2.766-.812 1.281-2.312 1.922-1.5.625-3.75.625-3.25 0-5-1.5-1.75-1.516-2.078-4.407zm27.71-3.171l-3.25.578q-.156-.97-.75-1.453-.577-.5-1.5-.5-1.234 0-1.968.859-.719.844-.719 2.828 0 2.219.735 3.14.75.907 2 .907.937 0 1.53-.531.61-.532.845-1.828l3.234.546q-.5 2.22-1.938 3.36-1.421 1.14-3.828 1.14-2.718 0-4.343-1.718-1.625-1.735-1.625-4.782 0-3.078 1.625-4.796 1.625-1.72 4.406-1.72 2.281 0 3.61.985 1.343.985 1.937 2.985zm5.645 8.765h-3.297v-12.453h3.063v1.781q.781-1.265 1.406-1.656.64-.406 1.438-.406 1.125 0 2.156.625l-1.016 2.875q-.828-.547-1.547-.547-.687 0-1.172.39-.484.376-.765 1.376-.266 1-.266 4.171v3.844zm6.184-14.14v-3.047h3.297v3.047h-3.297zm0 14.14v-12.453h3.297v12.453h-3.297zm6.574-12.453h3.078v1.828q.594-.937 1.61-1.515 1.03-.594 2.265-.594 2.172 0 3.672 1.703 1.516 1.703 1.516 4.734 0 3.125-1.532 4.86-1.515 1.718-3.672 1.718-1.03 0-1.875-.406-.843-.422-1.765-1.406v6.266h-3.297v-17.188zm3.266 6.016q0 2.093.828 3.109.828 1 2.031 1 1.14 0 1.906-.922t.766-3.015q0-1.97-.797-2.907-.781-.953-1.938-.953-1.203 0-2 .938-.796.922-.796 2.75zm17.207-6.016v2.625h-2.25v5.016q0 1.53.062 1.78.063.25.281.423.235.156.563.156.453 0 1.328-.312l.281 2.546q-1.156.5-2.61.5-.89 0-1.608-.296-.704-.297-1.047-.766-.328-.484-.453-1.297-.11-.578-.11-2.312v-5.438h-1.515v-2.625h1.515v-2.469l3.313-1.922v4.391h2.25z"/><path fill="#ccc" d="M350.77 160.504h122.518c16.05 0 29.061 23.62 29.061 52.756s-13.01 52.755-29.061 52.755H350.77c-16.05 0-29.061-23.62-29.061-52.755 0-29.136 13.01-52.756 29.061-52.756z" fill-rule="evenodd"/><path stroke="#cfe2f3" stroke-linejoin="round" stroke-linecap="butt" d="M350.77 160.504h122.518c16.05 0 29.061 23.62 29.061 52.756s-13.01 52.755-29.061 52.755H350.77h0c-16.05 0-29.061-23.62-29.061-52.755 0-29.136 13.01-52.756 29.061-52.756z"/><path fill="#fff" d="M373.19 219.356l8.97 2.844q-2.063 7.5-6.86 11.14-4.797 3.641-12.172 3.641-9.125 0-15-6.234-5.875-6.235-5.875-17.047 0-11.438 5.907-17.766 5.906-6.328 15.53-6.328 8.407 0 13.657 4.969 3.125 2.937 4.688 8.437l-9.157 2.188q-.812-3.563-3.39-5.625-2.578-2.063-6.266-2.063-5.094 0-8.265 3.657-3.172 3.656-3.172 11.843 0 8.688 3.125 12.375 3.125 3.688 8.125 3.688 3.687 0 6.343-2.344 2.657-2.344 3.813-7.375zm14.563 1.938l9-.875q.813 4.53 3.297 6.656 2.485 2.125 6.703 2.125 4.47 0 6.735-1.89 2.265-1.891 2.265-4.423 0-1.625-.953-2.765-.953-1.141-3.328-1.985-1.625-.562-7.406-2-7.438-1.843-10.438-4.531-4.218-3.781-4.218-9.219 0-3.5 1.984-6.547 1.984-3.046 5.719-4.64 3.734-1.594 9.015-1.594 8.625 0 12.985 3.781 4.36 3.782 4.578 10.094l-9.25.406q-.594-3.531-2.547-5.078-1.953-1.547-5.86-1.547-4.03 0-6.312 1.657-1.469 1.062-1.469 2.843 0 1.625 1.375 2.782 1.75 1.468 8.5 3.062 6.75 1.594 9.985 3.297 3.234 1.703 5.062 4.656 1.828 2.953 1.828 7.297 0 3.938-2.187 7.375-2.188 3.438-6.188 5.11-4 1.671-9.968 1.671-8.688 0-13.344-4.015-4.656-4.016-5.563-11.703zm42.688 0l9-.875q.812 4.53 3.297 6.656 2.484 2.125 6.703 2.125 4.469 0 6.734-1.89 2.266-1.891 2.266-4.423 0-1.625-.953-2.765-.953-1.141-3.328-1.985-1.625-.562-7.407-2-7.437-1.843-10.437-4.531-4.219-3.781-4.219-9.219 0-3.5 1.985-6.547 1.984-3.046 5.718-4.64 3.735-1.594 9.016-1.594 8.625 0 12.984 3.781 4.36 3.782 4.578 10.094l-9.25.406q-.593-3.531-2.546-5.078-1.954-1.547-5.86-1.547-4.031 0-6.312 1.657-1.47 1.062-1.47 2.843 0 1.625 1.376 2.782 1.75 1.468 8.5 3.062 6.75 1.594 9.984 3.297 3.235 1.703 5.063 4.656 1.828 2.953 1.828 7.297 0 3.938-2.188 7.375-2.187 3.438-6.187 5.11-4 1.671-9.969 1.671-8.687 0-13.344-4.015-4.656-4.016-5.562-11.703z"/><path d="M483.664 109.924c32.976 0 49.465 17.04 65.953 34.079s32.976 34.078 65.953 34.078"/><path stroke="#000" stroke-linejoin="round" stroke-linecap="butt" d="M483.664 109.924c32.976 0 49.465 17.04 65.953 34.079s32.976 34.078 65.953 34.078"/><path fill="#ccc" d="M650.055 155.291H795.44c19.046 0 34.485 9.98 34.485 22.29 0 12.309-15.44 22.288-34.485 22.288H650.055c-19.046 0-34.485-9.98-34.485-22.289 0-12.31 15.44-22.289 34.485-22.289z" fill-rule="evenodd"/><path stroke="#cfe2f3" stroke-linejoin="round" stroke-linecap="butt" d="M650.055 155.291H795.44c19.046 0 34.485 9.98 34.485 22.29 0 12.309-15.44 22.288-34.485 22.288H650.055h0c-19.046 0-34.485-9.98-34.485-22.289 0-12.31 15.44-22.289 34.485-22.289z"/><path fill="#666" d="M644.406 179.808V176.9h7.485v6.844q-1.094 1.063-3.172 1.875-2.063.797-4.172.797-2.703 0-4.703-1.125-2-1.14-3.016-3.234-1-2.11-1-4.594 0-2.672 1.125-4.75 1.125-2.094 3.282-3.219 1.656-.844 4.125-.844 3.187 0 4.984 1.344 1.812 1.328 2.328 3.703l-3.453.64q-.36-1.265-1.36-2-1-.733-2.5-.733-2.28 0-3.624 1.453-1.344 1.437-1.344 4.265 0 3.063 1.36 4.594 1.359 1.531 3.562 1.531 1.093 0 2.187-.422 1.094-.437 1.89-1.046v-2.172h-3.984zm17.872 2.343l3.28.563q-.64 1.797-2.015 2.75-1.36.937-3.406.937-3.25 0-4.797-2.125-1.234-1.703-1.234-4.28 0-3.095 1.609-4.845 1.625-1.765 4.094-1.765 2.781 0 4.375 1.844 1.61 1.828 1.547 5.609h-8.25q.03 1.469.797 2.281.765.813 1.89.813.781 0 1.297-.422.531-.422.813-1.36zm.187-3.328q-.047-1.422-.75-2.156-.703-.75-1.703-.75-1.078 0-1.781.781-.703.782-.688 2.125h4.922zm17.27 7.297h-3.297v-6.36q0-2.015-.22-2.593-.202-.594-.687-.922-.468-.328-1.125-.328-.859 0-1.546.469-.672.469-.922 1.25-.25.765-.25 2.844v5.64h-3.297v-12.453h3.062v1.828q1.625-2.11 4.094-2.11 1.094 0 1.984.407.907.39 1.375 1 .47.61.641 1.39.188.766.188 2.204v7.734zm10.55-3.969l3.282.563q-.641 1.797-2.016 2.75-1.36.937-3.406.937-3.25 0-4.797-2.125-1.235-1.703-1.235-4.28 0-3.095 1.61-4.845 1.625-1.765 4.094-1.765 2.78 0 4.375 1.844 1.609 1.828 1.546 5.609h-8.25q.032 1.469.797 2.281.766.813 1.891.813.781 0 1.297-.422.531-.422.812-1.36zm.188-3.328q-.047-1.422-.75-2.156-.703-.75-1.703-.75-1.078 0-1.782.781-.703.782-.687 2.125h4.922zm9.097 7.297h-3.296v-12.453h3.062v1.781q.781-1.265 1.406-1.656.641-.406 1.438-.406 1.125 0 2.156.625l-1.016 2.875q-.828-.547-1.546-.547-.688 0-1.172.39-.485.376-.766 1.376-.266 1-.266 4.171v3.844zm8.653-8.656l-2.985-.531q.5-1.813 1.72-2.672 1.234-.875 3.671-.875 2.203 0 3.281.531 1.078.516 1.516 1.328.437.797.437 2.938l-.03 3.843q0 1.641.155 2.422.157.782.594 1.672h-3.265q-.125-.328-.313-.969-.078-.296-.125-.39-.844.812-1.812 1.234-.954.406-2.032.406-1.922 0-3.03-1.046-1.11-1.047-1.11-2.641 0-1.047.5-1.875.5-.828 1.406-1.266.922-.437 2.625-.765 2.312-.438 3.203-.813v-.328q0-.953-.469-1.344-.468-.406-1.765-.406-.89 0-1.39.344-.485.344-.782 1.203zm4.406 2.672q-.64.219-2.016.515-1.359.282-1.78.563-.641.469-.641 1.172 0 .687.515 1.187.516.5 1.313.5.89 0 1.687-.578.61-.453.797-1.094.125-.421.125-1.609v-.656zm12.191-6.469v2.625h-2.25v5.016q0 1.53.063 1.78.062.25.281.423.235.156.563.156.453 0 1.328-.312l.281 2.546q-1.156.5-2.61.5-.89 0-1.609-.296-.703-.297-1.047-.766-.328-.484-.453-1.297-.109-.578-.109-2.312v-5.438h-1.516v-2.625h1.516v-2.469l3.312-1.922v4.391h2.25zm2.274-1.687v-3.047h3.297v3.047h-3.297zm0 14.14v-12.453h3.297v12.453h-3.297zm10.09 0l-5.016-12.453h3.469l2.344 6.36.672 2.124q.265-.812.343-1.078.157-.515.344-1.047l2.375-6.359h3.39l-4.952 12.453h-2.97zm17.144-3.969l3.282.563q-.641 1.797-2.016 2.75-1.36.937-3.406.937-3.25 0-4.797-2.125-1.235-1.703-1.235-4.28 0-3.095 1.61-4.845 1.625-1.765 4.094-1.765 2.78 0 4.375 1.844 1.609 1.828 1.546 5.609h-8.25q.032 1.469.797 2.281.766.813 1.89.813.782 0 1.298-.422.531-.422.812-1.36zm.188-3.328q-.047-1.422-.75-2.156-.703-.75-1.703-.75-1.078 0-1.782.781-.703.782-.687 2.125h4.922zm28.125 7.297h-3.766l-1.5-3.906H770.5l-1.406 3.906h-3.688l6.688-17.187h3.672l6.875 17.187zm-6.375-6.797l-2.375-6.375-2.313 6.375h4.688zm11.347 6.797h-3.296v-12.453h3.062v1.781q.781-1.265 1.406-1.656.641-.406 1.438-.406 1.125 0 2.156.625l-1.016 2.875q-.828-.547-1.546-.547-.688 0-1.172.39-.485.376-.766 1.376-.266 1-.266 4.171v3.844zm11.903-12.453v2.625h-2.25v5.016q0 1.53.062 1.78.063.25.282.423.234.156.562.156.453 0 1.328-.312l.281 2.546q-1.156.5-2.609.5-.89 0-1.61-.296-.702-.297-1.046-.766-.328-.484-.453-1.297-.11-.578-.11-2.312v-5.438h-1.515v-2.625h1.515v-2.469l3.313-1.922v4.391h2.25z"/><path d="M504.549 214.352c18.133 0 27.2 6.598 36.267 13.197 9.067 6.598 18.134 13.196 36.268 13.196"/><path stroke="#000" stroke-linejoin="round" stroke-linecap="butt" d="M504.549 214.352c18.133 0 27.2 6.598 36.267 13.197 9.067 6.598 18.134 13.196 36.268 13.196"/><path fill="#ccc" d="M599.577 220.756h113.328c14.846 0 26.882 9.979 26.882 22.289 0 12.31-12.036 22.289-26.882 22.289H599.577c-14.846 0-26.881-9.98-26.881-22.29 0-12.31 12.035-22.288 26.881-22.288z" fill-rule="evenodd"/><path stroke="#cfe2f3" stroke-linejoin="round" stroke-linecap="butt" d="M599.577 220.756h113.328c14.846 0 26.882 9.979 26.882 22.289 0 12.31-12.036 22.289-26.882 22.289H599.577h0c-14.846 0-26.881-9.98-26.881-22.29 0-12.31 12.035-22.288 26.881-22.288z"/><path fill="#666" d="M597.008 239.132v2.625h-2.25v5.015q0 1.531.063 1.781.062.25.28.422.235.157.563.157.453 0 1.328-.313l.282 2.547q-1.157.5-2.61.5-.89 0-1.61-.297-.702-.297-1.046-.766-.328-.484-.453-1.296-.11-.579-.11-2.313v-5.437h-1.515v-2.625h1.516v-2.47l3.312-1.921v4.39h2.25zm5.43 12.453h-3.297v-12.453h3.062v1.78q.782-1.265 1.407-1.655.64-.407 1.437-.407 1.125 0 2.156.625l-1.015 2.875q-.828-.547-1.547-.547-.688 0-1.172.391-.484.375-.766 1.375-.265 1-.265 4.172v3.844zm8.652-8.657l-2.984-.53q.5-1.813 1.718-2.673 1.235-.875 3.672-.875 2.203 0 3.282.532 1.078.515 1.515 1.328.438.797.438 2.937l-.032 3.844q0 1.64.157 2.422.156.781.593 1.672h-3.265q-.125-.328-.313-.969-.078-.297-.125-.39-.843.812-1.812 1.234-.953.406-2.031.406-1.922 0-3.032-1.047-1.109-1.047-1.109-2.64 0-1.047.5-1.876.5-.828 1.406-1.265.922-.438 2.625-.766 2.313-.437 3.203-.812v-.328q0-.954-.468-1.344-.47-.406-1.766-.406-.89 0-1.39.343-.485.344-.782 1.203zm4.406 2.672q-.64.22-2.015.516-1.36.281-1.782.562-.64.47-.64 1.172 0 .688.515 1.188.516.5 1.313.5.89 0 1.687-.578.61-.453.797-1.094.125-.422.125-1.61v-.656zm17.801 5.985H630v-6.36q0-2.015-.219-2.593-.203-.594-.687-.922-.469-.328-1.125-.328-.86 0-1.547.468-.672.47-.922 1.25-.25.766-.25 2.844v5.64h-3.297v-12.452h3.063v1.828q1.625-2.11 4.094-2.11 1.093 0 1.984.407.906.39 1.375 1 .469.609.64 1.39.188.766.188 2.203v7.735zm2.176-3.547l3.312-.516q.204.969.844 1.469.656.5 1.813.5 1.28 0 1.922-.469.437-.328.437-.89 0-.375-.234-.61-.25-.234-1.11-.437-3.984-.875-5.047-1.61-1.484-1-1.484-2.797 0-1.625 1.281-2.718 1.282-1.11 3.969-1.11 2.547 0 3.781.844 1.25.828 1.719 2.453l-3.11.578q-.187-.734-.75-1.109-.562-.39-1.593-.39-1.297 0-1.86.359-.374.265-.374.672 0 .343.328.593.453.328 3.078.938 2.625.594 3.672 1.453 1.03.875 1.03 2.453 0 1.703-1.437 2.938-1.421 1.234-4.218 1.234-2.547 0-4.032-1.031-1.484-1.032-1.937-2.797zm14.504-10.594v-3.047h3.297v3.047h-3.297zm0 14.14v-12.452h3.297v12.453h-3.297zm12.387-12.452v2.625h-2.25v5.015q0 1.531.062 1.781.063.25.281.422.235.157.563.157.453 0 1.328-.313l.281 2.547q-1.156.5-2.61.5-.89 0-1.609-.297-.703-.297-1.046-.766-.329-.484-.454-1.296-.109-.579-.109-2.313v-5.437h-1.516v-2.625h1.516v-2.47l3.313-1.921v4.39h2.25zm2.273-1.688v-3.047h3.297v3.047h-3.297zm0 14.14v-12.452h3.297v12.453h-3.297zm5.918-6.406q0-1.64.797-3.171.812-1.532 2.297-2.344 1.484-.813 3.312-.813 2.828 0 4.625 1.844 1.813 1.828 1.813 4.625 0 2.828-1.828 4.688-1.829 1.859-4.594 1.859-1.703 0-3.266-.766-1.547-.78-2.36-2.265-.796-1.5-.796-3.657zm3.375.188q0 1.844.875 2.828.875.984 2.172.984 1.281 0 2.156-.984.875-.984.875-2.86 0-1.827-.875-2.812-.875-.984-2.156-.984-1.297 0-2.172.984-.875.985-.875 2.844zm23.363 6.219h-3.297v-6.36q0-2.015-.218-2.593-.204-.594-.688-.922-.469-.328-1.125-.328-.86 0-1.547.468-.672.47-.922 1.25-.25.766-.25 2.844v5.64h-3.297v-12.452h3.063v1.828q1.625-2.11 4.094-2.11 1.093 0 1.984.407.906.39 1.375 1 .469.609.64 1.39.188.766.188 2.203v7.735zm2.176-3.547l3.312-.516q.204.969.844 1.469.656.5 1.813.5 1.281 0 1.922-.469.437-.328.437-.89 0-.375-.234-.61-.25-.234-1.11-.437-3.984-.875-5.047-1.61-1.484-1-1.484-2.797 0-1.625 1.281-2.718 1.282-1.11 3.97-1.11 2.546 0 3.78.844 1.25.828 1.72 2.453l-3.11.578q-.188-.734-.75-1.109-.563-.39-1.594-.39-1.297 0-1.86.359-.374.265-.374.672 0 .343.328.593.453.328 3.078.938 2.625.594 3.672 1.453 1.031.875 1.031 2.453 0 1.703-1.438 2.938-1.421 1.234-4.218 1.234-2.547 0-4.032-1.031-1.484-1.032-1.937-2.797z"/><path fill="#ccc" d="M580.401 298.14H693.73c14.846 0 26.882 9.978 26.882 22.288s-12.036 22.289-26.882 22.289H580.401c-14.846 0-26.881-9.98-26.881-22.29 0-12.309 12.035-22.288 26.881-22.288z" fill-rule="evenodd"/><path stroke="#cfe2f3" stroke-linejoin="round" stroke-linecap="butt" d="M580.401 298.14H693.73c14.846 0 26.882 9.978 26.882 22.288s-12.036 22.289-26.882 22.289H580.401h0c-14.846 0-26.881-9.98-26.881-22.29 0-12.309 12.035-22.288 26.881-22.288z"/><path fill="#666" d="M577.832 316.515v2.625h-2.25v5.015q0 1.532.063 1.782.062.25.28.422.235.156.563.156.454 0 1.329-.313l.28 2.547q-1.155.5-2.609.5-.89 0-1.609-.297-.703-.297-1.047-.765-.328-.485-.453-1.297-.11-.578-.11-2.313v-5.437h-1.515v-2.625h1.516v-2.469l3.312-1.922v4.39h2.25zm5.43 12.453h-3.297v-12.453h3.063v1.781q.78-1.266 1.406-1.656.64-.406 1.437-.406 1.125 0 2.157.625l-1.016 2.875q-.828-.547-1.547-.547-.687 0-1.172.39-.484.375-.765 1.375-.266 1-.266 4.172v3.844zm8.652-8.656l-2.984-.532q.5-1.812 1.719-2.671 1.234-.875 3.671-.875 2.204 0 3.282.53 1.078.516 1.515 1.329.438.797.438 2.937l-.031 3.844q0 1.64.156 2.422.156.781.594 1.672h-3.266q-.125-.328-.313-.969-.078-.297-.125-.39-.843.812-1.812 1.234-.953.406-2.031.406-1.922 0-3.032-1.047-1.109-1.047-1.109-2.64 0-1.047.5-1.875.5-.828 1.406-1.266.922-.437 2.625-.766 2.313-.437 3.203-.812v-.328q0-.953-.468-1.344-.469-.406-1.766-.406-.89 0-1.39.344-.485.343-.782 1.203zm4.406 2.672q-.64.218-2.015.515-1.36.281-1.781.563-.641.468-.641 1.172 0 .687.516 1.187.515.5 1.312.5.89 0 1.688-.578.609-.453.796-1.094.125-.422.125-1.61v-.655zm17.801 5.984h-3.297v-6.36q0-2.015-.218-2.593-.203-.594-.688-.922-.469-.328-1.125-.328-.86 0-1.547.469-.672.468-.922 1.25-.25.765-.25 2.843v5.64h-3.296v-12.452h3.062v1.828q1.625-2.11 4.094-2.11 1.094 0 1.984.407.906.39 1.375 1t.64 1.39q.188.766.188 2.204v7.734zm2.176-3.547l3.313-.516q.203.97.843 1.47.657.5 1.813.5 1.281 0 1.922-.47.437-.328.437-.89 0-.375-.234-.61-.25-.234-1.11-.437-3.984-.875-5.046-1.61-1.485-1-1.485-2.796 0-1.625 1.281-2.72 1.282-1.108 3.97-1.108 2.546 0 3.78.843 1.25.828 1.72 2.453l-3.11.579q-.188-.735-.75-1.11-.563-.39-1.594-.39-1.297 0-1.86.359-.374.266-.374.672 0 .344.328.594.453.328 3.078.937 2.625.594 3.672 1.453 1.031.875 1.031 2.453 0 1.703-1.437 2.938-1.422 1.234-4.22 1.234-2.546 0-4.03-1.031-1.485-1.031-1.938-2.797zm13.066-8.906h1.829v-.938q0-1.562.328-2.328.343-.781 1.234-1.265.906-.485 2.266-.485 1.406 0 2.765.422l-.453 2.297q-.781-.188-1.515-.188-.704 0-1.016.329-.313.328-.313 1.28v.876h2.454v2.594h-2.454v9.859h-3.296v-9.86h-1.829v-2.593zm8.68 6.047q0-1.641.797-3.172.813-1.531 2.297-2.344 1.484-.812 3.312-.812 2.829 0 4.625 1.843 1.813 1.828 1.813 4.625 0 2.828-1.828 4.688-1.828 1.86-4.594 1.86-1.703 0-3.266-.766-1.546-.782-2.359-2.266-.797-1.5-.797-3.656zm3.375.187q0 1.844.875 2.828.875.985 2.172.985 1.281 0 2.156-.985.875-.984.875-2.86 0-1.827-.875-2.812-.875-.984-2.156-.984-1.297 0-2.172.984-.875.985-.875 2.844zm15.192 6.219h-3.297v-12.453h3.062v1.781q.781-1.266 1.406-1.656.641-.406 1.438-.406 1.125 0 2.156.625l-1.015 2.875q-.829-.547-1.547-.547-.688 0-1.172.39-.485.375-.766 1.375-.265 1-.265 4.172v3.844zm5.949-12.453h3.031v1.703q1.625-1.984 3.875-1.984 1.203 0 2.078.5.875.484 1.438 1.484.828-1 1.765-1.484.953-.5 2.032-.5 1.375 0 2.312.562.953.563 1.422 1.64.344.798.344 2.579v7.953h-3.297v-7.11q0-1.859-.328-2.39-.47-.703-1.407-.703-.703 0-1.312.422-.61.422-.875 1.234-.266.813-.266 2.563v5.984h-3.297v-6.828q0-1.813-.171-2.328-.172-.532-.547-.782-.375-.265-1-.265-.766 0-1.375.406-.61.406-.875 1.188-.266.765-.266 2.562v6.047h-3.281v-12.453zm20.418 8.906l3.312-.516q.203.97.844 1.47.656.5 1.812.5 1.282 0 1.922-.47.438-.328.438-.89 0-.375-.235-.61-.25-.234-1.109-.437-3.984-.875-5.047-1.61-1.484-1-1.484-2.796 0-1.625 1.281-2.72 1.281-1.108 3.969-1.108 2.547 0 3.781.843 1.25.828 1.719 2.453l-3.11.579q-.187-.735-.75-1.11-.562-.39-1.593-.39-1.297 0-1.86.359-.375.266-.375.672 0 .344.328.594.454.328 3.079.937 2.625.594 3.671 1.453 1.032.875 1.032 2.453 0 1.703-1.438 2.938-1.422 1.234-4.219 1.234-2.546 0-4.03-1.031-1.485-1.031-1.938-2.797z"/><path fill="#ccc" d="M602.555 360h95.421c12.5 0 22.634 9.979 22.634 22.289 0 12.31-10.133 22.289-22.634 22.289h-95.42c-12.501 0-22.635-9.98-22.635-22.29 0-12.309 10.134-22.288 22.634-22.288z" fill-rule="evenodd"/><path stroke="#cfe2f3" stroke-linejoin="round" stroke-linecap="butt" d="M602.555 360h95.421c12.5 0 22.634 9.979 22.634 22.289 0 12.31-10.133 22.289-22.634 22.289h-95.42 0c-12.501 0-22.635-9.98-22.635-22.29 0-12.309 10.134-22.288 22.634-22.288z"/><path fill="#666" d="M595.833 378.376h1.828v-.938q0-1.562.328-2.328.344-.781 1.235-1.266.906-.484 2.265-.484 1.407 0 2.766.422l-.453 2.297q-.781-.188-1.516-.188-.703 0-1.015.328-.313.329-.313 1.282v.875h2.453v2.593h-2.453v9.86h-3.297v-9.86h-1.828v-2.593zm9.43 12.453V373.64h3.297v17.188h-3.297zm13.887-3.969l3.28.563q-.64 1.796-2.015 2.75-1.36.937-3.406.937-3.25 0-4.797-2.125-1.234-1.703-1.234-4.281 0-3.094 1.609-4.844 1.625-1.766 4.094-1.766 2.781 0 4.375 1.844 1.61 1.828 1.547 5.61h-8.25q.03 1.468.797 2.28.765.813 1.89.813.781 0 1.297-.422.531-.421.813-1.359zm.187-3.328q-.047-1.422-.75-2.156-.703-.75-1.703-.75-1.078 0-1.781.781-.703.781-.688 2.125h4.922zm4.363 7.297l4.485-6.406-4.297-6.047h4.015l2.204 3.422 2.328-3.422h3.859l-4.219 5.906 4.61 6.547h-4.047l-2.531-3.86-2.547 3.86h-3.86zm13.176.297l4.25-17.766h2.469l-4.297 17.766h-2.422zm8.121.531l3.766.453q.094.656.422.906.468.344 1.484.344 1.281 0 1.938-.39.421-.25.656-.829.14-.406.14-1.515v-1.813q-1.468 2.016-3.718 2.016-2.516 0-3.97-2.125-1.155-1.672-1.155-4.172 0-3.125 1.5-4.781 1.515-1.657 3.75-1.657 2.312 0 3.812 2.032v-1.75h3.078v11.172q0 2.203-.36 3.296-.358 1.094-1.015 1.704-.656.625-1.765.968-1.094.36-2.766.36-3.156 0-4.484-1.078-1.328-1.079-1.328-2.75 0-.157.015-.391zm2.938-7.313q0 1.985.765 2.907.766.922 1.89.922 1.22 0 2.048-.938.828-.953.828-2.812 0-1.922-.797-2.86-.797-.937-2.016-.937-1.187 0-1.953.922-.765.906-.765 2.796zm15.175 6.485h-3.296v-12.453h3.062v1.781q.781-1.266 1.406-1.656.64-.407 1.438-.407 1.125 0 2.156.625l-1.016 2.875q-.828-.546-1.546-.546-.688 0-1.172.39-.485.375-.766 1.375-.266 1-.266 4.172v3.844zm6.184-14.14v-3.048h3.297v3.047h-3.297zm0 14.14v-12.453h3.297v12.453h-3.297zm18.09 0h-3.063V389q-.765 1.062-1.796 1.593-1.032.516-2.094.516-2.14 0-3.672-1.719-1.531-1.734-1.531-4.828 0-3.172 1.484-4.812 1.5-1.657 3.766-1.657 2.093 0 3.609 1.735v-6.188h3.297v17.188zm-8.797-6.5q0 2 .563 2.89.796 1.282 2.218 1.282 1.14 0 1.938-.953.797-.97.797-2.891 0-2.156-.782-3.094-.765-.937-1.968-.937-1.172 0-1.97.937-.796.922-.796 2.766z"/><path d="M501.236 214.35c0 53.039 26.142 106.078 52.284 106.078"/><path stroke="#000" stroke-linejoin="round" stroke-linecap="butt" d="M501.236 214.35c0 53.039 26.142 106.078 52.284 106.078"/><path d="M503.449 214.352c0 83.968 38.236 167.937 76.472 167.937"/><path stroke="#000" stroke-linejoin="round" stroke-linecap="butt" d="M503.449 214.352c0 83.968 38.236 167.937 76.472 167.937"/><path d="M413.312 267.115c0 45.623 29.678 68.434 59.355 91.245 29.677 22.81 59.354 45.622 59.354 91.244"/><path stroke="#000" stroke-linejoin="round" stroke-linecap="butt" d="M413.312 267.115c0 45.623 29.678 68.434 59.355 91.245 29.677 22.81 59.354 45.622 59.354 91.244"/><path fill="#ccc" d="M539.77 449.604h102.14c13.38 0 24.227 17.963 24.227 40.122 0 22.158-10.847 40.121-24.228 40.121H539.771c-13.38 0-24.228-17.963-24.228-40.121 0-22.159 10.847-40.122 24.228-40.122z" fill-rule="evenodd"/><path stroke="#cfe2f3" stroke-linejoin="round" stroke-linecap="butt" d="M539.77 449.604h102.14c13.38 0 24.227 17.963 24.227 40.122 0 22.158-10.847 40.121-24.228 40.121H539.771h0c-13.38 0-24.228-17.963-24.228-40.121 0-22.159 10.847-40.122 24.228-40.122z"/><path fill="#666" d="M534.047 477.866h8.813q2.968 0 4.53.453 2.11.625 3.595 2.203 1.5 1.579 2.28 3.875.782 2.282.782 5.625 0 2.954-.734 5.079-.891 2.609-2.547 4.218-1.25 1.22-3.39 1.907-1.595.5-4.266.5h-9.063v-23.86zm4.813 4.031v15.813h3.609q2.015 0 2.906-.234 1.172-.297 1.938-.985.78-.703 1.265-2.297.485-1.609.485-4.375 0-2.765-.485-4.25-.484-1.484-1.375-2.312-.875-.828-2.218-1.125-1.016-.235-3.954-.235h-2.171zm29.255 14.329l4.547.765q-.875 2.5-2.78 3.813-1.892 1.312-4.735 1.312-4.5 0-6.672-2.953-1.703-2.36-1.703-5.953 0-4.297 2.234-6.719 2.25-2.437 5.688-2.437 3.859 0 6.078 2.547 2.234 2.546 2.14 7.796H561.46q.047 2.047 1.094 3.172 1.062 1.125 2.64 1.125 1.079 0 1.813-.578.734-.594 1.11-1.89zm.25-4.625q-.046-1.985-1.03-3.016-.97-1.031-2.36-1.031-1.5 0-2.485 1.093-.968 1.079-.953 2.954h6.828zm6.661 5.187l4.594-.687q.281 1.328 1.172 2.03.906.688 2.515.688 1.782 0 2.672-.656.594-.453.594-1.219 0-.53-.313-.859-.343-.328-1.53-.61-5.532-1.218-7.016-2.234-2.047-1.39-2.047-3.89 0-2.235 1.765-3.766 1.782-1.531 5.5-1.531 3.547 0 5.266 1.156 1.734 1.156 2.39 3.422l-4.312.797q-.281-1.016-1.062-1.547-.766-.547-2.204-.547-1.796 0-2.578.516-.531.359-.531.921 0 .485.469.829.61.453 4.265 1.28 3.657.829 5.11 2.048 1.422 1.218 1.422 3.39 0 2.375-1.985 4.094-1.984 1.703-5.875 1.703-3.531 0-5.593-1.422-2.047-1.437-2.688-3.906zm20.145-14.687v-4.235h4.578v4.235h-4.578zm0 19.625v-17.282h4.578v17.282h-4.578zm8.838 1.14l5.218.64q.141.907.61 1.25.656.485 2.047.485 1.797 0 2.687-.531.594-.36.906-1.156.22-.578.22-2.11v-2.515q-2.048 2.797-5.173 2.797-3.484 0-5.515-2.954-1.61-2.312-1.61-5.78 0-4.345 2.094-6.641 2.094-2.297 5.203-2.297 3.203 0 5.297 2.812v-2.422h4.266v15.5q0 3.063-.5 4.578-.5 1.516-1.422 2.375-.906.86-2.422 1.344-1.516.5-3.844.5-4.406 0-6.25-1.515-1.828-1.5-1.828-3.813 0-.219.016-.547zm4.078-10.14q0 2.75 1.062 4.03 1.078 1.282 2.64 1.282 1.673 0 2.829-1.312 1.156-1.313 1.156-3.891 0-2.688-1.11-3.984-1.108-1.297-2.796-1.297-1.64 0-2.719 1.281-1.062 1.266-1.062 3.89zm32.42 9h-4.562v-8.813q0-2.812-.297-3.625-.297-.828-.953-1.281-.656-.453-1.594-.453-1.187 0-2.14.656-.938.64-1.282 1.719-.343 1.078-.343 3.968v7.829h-4.579v-17.282h4.25v2.532q2.266-2.922 5.688-2.922 1.516 0 2.766.547 1.265.546 1.906 1.39.64.844.89 1.922.25 1.078.25 3.078v10.735z"/><path d="M412.213 268.213c0 32.425 8.244 48.637 16.488 64.85 8.244 16.213 16.488 32.425 16.488 64.85"/><path stroke="#000" stroke-linejoin="round" stroke-linecap="butt" d="M412.213 268.213c0 32.425 8.244 48.637 16.488 64.85 8.244 16.213 16.488 32.425 16.488 64.85"/><path fill="#ccc" d="M416.091 397.913h58.808c7.704 0 13.949 9.98 13.949 22.29 0 12.309-6.245 22.288-13.95 22.288h-58.807c-7.704 0-13.95-9.979-13.95-22.289 0-12.31 6.246-22.289 13.95-22.289z" fill-rule="evenodd"/><path stroke="#cfe2f3" stroke-linejoin="round" stroke-linecap="butt" d="M416.091 397.913h58.808c7.704 0 13.949 9.98 13.949 22.29 0 12.309-6.245 22.288-13.95 22.288h-58.807 0c-7.704 0-13.95-9.979-13.95-22.289 0-12.31 6.246-22.289 13.95-22.289z"/><path fill="#666" d="M415.79 425.195l3.313-.515q.203.968.844 1.468.656.5 1.812.5 1.282 0 1.922-.468.438-.328.438-.891 0-.375-.235-.61-.25-.234-1.109-.437-3.984-.875-5.047-1.61-1.484-1-1.484-2.796 0-1.625 1.281-2.719 1.281-1.11 3.969-1.11 2.547 0 3.781.845 1.25.828 1.719 2.453l-3.11.578q-.187-.735-.75-1.11-.562-.39-1.593-.39-1.297 0-1.86.36-.375.265-.375.671 0 .344.328.594.454.328 3.079.937 2.625.594 3.671 1.453 1.032.875 1.032 2.454 0 1.703-1.438 2.937-1.422 1.234-4.219 1.234-2.546 0-4.03-1.03-1.485-1.032-1.938-2.798zm25.364-5.218l-3.25.578q-.156-.97-.75-1.453-.578-.5-1.5-.5-1.234 0-1.969.859-.719.844-.719 2.828 0 2.219.735 3.14.75.907 2 .907.937 0 1.531-.531.61-.532.844-1.828l3.234.546q-.5 2.22-1.937 3.36-1.422 1.14-3.828 1.14-2.72 0-4.344-1.718-1.625-1.735-1.625-4.782 0-3.078 1.625-4.796 1.625-1.72 4.406-1.72 2.281 0 3.61.985 1.343.985 1.937 2.985zm1.332 5.218l3.312-.515q.204.968.844 1.468.656.5 1.813.5 1.281 0 1.922-.468.437-.328.437-.891 0-.375-.234-.61-.25-.234-1.11-.437-3.984-.875-5.047-1.61-1.484-1-1.484-2.796 0-1.625 1.281-2.719 1.282-1.11 3.97-1.11 2.546 0 3.78.845 1.25.828 1.72 2.453l-3.11.578q-.188-.735-.75-1.11-.563-.39-1.594-.39-1.297 0-1.86.36-.374.265-.374.671 0 .344.328.594.453.328 3.078.937 2.625.594 3.672 1.453 1.031.875 1.031 2.454 0 1.703-1.438 2.937-1.421 1.234-4.218 1.234-2.547 0-4.032-1.03-1.484-1.032-1.937-2.798zm13.348 0l3.312-.515q.203.968.844 1.468.656.5 1.812.5 1.282 0 1.922-.468.438-.328.438-.891 0-.375-.235-.61-.25-.234-1.109-.437-3.984-.875-5.047-1.61-1.484-1-1.484-2.796 0-1.625 1.281-2.719 1.281-1.11 3.969-1.11 2.547 0 3.781.845 1.25.828 1.719 2.453l-3.11.578q-.187-.735-.75-1.11-.562-.39-1.593-.39-1.297 0-1.86.36-.375.265-.375.671 0 .344.328.594.453.328 3.078.937 2.625.594 3.672 1.453 1.032.875 1.032 2.454 0 1.703-1.438 2.937-1.422 1.234-4.219 1.234-2.547 0-4.03-1.03-1.485-1.032-1.938-2.798z"/><path d="M186.871 322.076c0 6.596-3.85 6.322-7.7 13.192s-7.701 20.884-7.701 41.769"/><path stroke="#000" stroke-linejoin="round" stroke-linecap="butt" d="M186.871 322.076c0 6.596-3.85 6.322-7.7 13.192s-7.701 20.884-7.701 41.769"/><path d="M139.604 379.236h158.299v60.441h-158.3z"/><path fill="#ccc" d="M132.666 372.16h58.807c7.704 0 13.95 9.98 13.95 22.289 0 12.31-6.246 22.289-13.95 22.289h-58.807c-7.704 0-13.95-9.98-13.95-22.29 0-12.309 6.246-22.288 13.95-22.288z" fill-rule="evenodd"/><path stroke="#cfe2f3" stroke-linejoin="round" stroke-linecap="butt" d="M132.666 372.16h58.807c7.704 0 13.95 9.98 13.95 22.289 0 12.31-6.246 22.289-13.95 22.289h-58.807 0c-7.704 0-13.95-9.98-13.95-22.29 0-12.309 6.246-22.288 13.95-22.288z"/><path fill="#666" d="M133.553 402.989V385.8h12.734v2.907h-9.265v3.812h8.625v2.89h-8.625v4.688h9.593v2.89h-13.062zm15.133-5.594l3.375-.328q.297 1.703 1.219 2.5.937.797 2.53.797 1.673 0 2.516-.703.86-.719.86-1.672 0-.61-.36-1.031-.359-.422-1.25-.75-.609-.203-2.78-.75-2.782-.688-3.907-1.688-1.594-1.422-1.594-3.469 0-1.312.75-2.453.75-1.14 2.14-1.734 1.407-.594 3.391-.594 3.235 0 4.86 1.422 1.64 1.406 1.719 3.781l-3.47.14q-.218-1.312-.952-1.89-.735-.593-2.203-.593-1.5 0-2.36.625-.547.406-.547 1.062 0 .61.516 1.047.656.547 3.187 1.156 2.532.594 3.735 1.235 1.219.64 1.906 1.75.688 1.093.688 2.734 0 1.469-.829 2.766-.812 1.28-2.312 1.921-1.5.625-3.75.625-3.25 0-5-1.5-1.75-1.515-2.078-4.406zm27.304-7.375l-3.187.344q-.11-.984-.61-1.453-.484-.469-1.265-.469-1.047 0-1.766.938-.718.937-.906 3.906 1.219-1.453 3.047-1.453 2.062 0 3.531 1.578 1.485 1.562 1.485 4.047 0 2.64-1.547 4.234-1.547 1.594-3.985 1.594-2.593 0-4.28-2.016-1.673-2.031-1.673-6.64 0-4.72 1.75-6.797 1.75-2.094 4.531-2.094 1.97 0 3.25 1.094 1.282 1.093 1.625 3.187zm-7.453 7.172q0 1.61.735 2.484.734.875 1.687.875.906 0 1.516-.718.61-.72.61-2.344 0-1.672-.657-2.453-.656-.781-1.64-.781-.938 0-1.594.75-.657.734-.657 2.187z"/><path fill="#ccc" d="M309.092 456.168h84.24c11.035 0 19.981 13.534 19.981 30.229s-8.946 30.228-19.982 30.228h-84.24c-11.035 0-19.98-13.533-19.98-30.228s8.945-30.229 19.981-30.229z" fill-rule="evenodd"/><path stroke="#cfe2f3" stroke-linejoin="round" stroke-linecap="butt" d="M309.092 456.168h84.24c11.035 0 19.981 13.534 19.981 30.229s-8.946 30.228-19.982 30.228h-84.24 0c-11.035 0-19.98-13.533-19.98-30.228s8.945-30.229 19.981-30.229z"/><path fill="#666" d="M305.73 494.937v-17.188h7.296q2.75 0 4 .469t2 1.656q.75 1.172.75 2.703 0 1.922-1.14 3.188-1.14 1.266-3.39 1.594 1.124.656 1.843 1.437.734.781 1.984 2.781l2.094 3.36h-4.14l-2.516-3.735q-1.328-2.015-1.828-2.53-.485-.516-1.047-.704-.547-.203-1.735-.203h-.703v7.172h-3.469zm3.468-9.922h2.563q2.5 0 3.11-.203.624-.219.968-.735.36-.515.36-1.28 0-.876-.47-1.407-.453-.531-1.296-.672-.422-.062-2.532-.062h-2.703v4.359zm21.035 5.953l3.282.563q-.641 1.796-2.016 2.75-1.36.937-3.406.937-3.25 0-4.797-2.125-1.234-1.703-1.234-4.281 0-3.094 1.609-4.844 1.625-1.766 4.094-1.766 2.78 0 4.375 1.844 1.609 1.828 1.547 5.61h-8.25q.03 1.468.796 2.28.766.813 1.891.813.781 0 1.297-.422.531-.421.812-1.359zm.188-3.328q-.047-1.422-.75-2.156-.703-.75-1.703-.75-1.078 0-1.781.78-.704.782-.688 2.126h4.922zm8.41-1.36l-2.984-.53q.5-1.813 1.718-2.673 1.235-.875 3.672-.875 2.203 0 3.282.532 1.078.515 1.515 1.328.438.797.438 2.937l-.032 3.844q0 1.64.157 2.422.156.781.593 1.672h-3.265q-.125-.328-.313-.969-.078-.297-.125-.39-.843.812-1.812 1.234-.953.406-2.031.406-1.922 0-3.032-1.047t-1.11-2.64q0-1.047.5-1.875.5-.829 1.407-1.266.922-.438 2.625-.766 2.313-.437 3.203-.812v-.328q0-.953-.468-1.344-.47-.406-1.766-.406-.89 0-1.39.343-.485.344-.782 1.204zm4.406 2.672q-.64.22-2.015.516-1.36.281-1.782.563-.64.468-.64 1.171 0 .688.515 1.188.516.5 1.313.5.89 0 1.687-.578.61-.453.797-1.094.125-.422.125-1.61v-.656zm17.332-2.78l-3.25.577q-.156-.968-.75-1.453-.578-.5-1.5-.5-1.234 0-1.968.86-.72.843-.72 2.828 0 2.218.735 3.14.75.907 2 .907.938 0 1.531-.532.61-.531.844-1.828l3.235.547q-.5 2.219-1.938 3.36-1.422 1.14-3.828 1.14-2.719 0-4.344-1.719-1.625-1.734-1.625-4.781 0-3.078 1.625-4.797 1.625-1.719 4.406-1.719 2.282 0 3.61.985 1.344.984 1.937 2.984zm8.207-3.688v2.625h-2.25v5.015q0 1.532.063 1.782.062.25.281.421.234.157.563.157.453 0 1.328-.313l.281 2.547q-1.156.5-2.61.5-.89 0-1.609-.297-.703-.297-1.047-.765-.328-.485-.453-1.297-.11-.578-.11-2.313v-5.437h-1.515v-2.625h1.516v-2.47l3.312-1.921v4.39h2.25z"/><path d="M353.955 518.84c0 15.118 11.268 22.677 22.536 30.236 11.268 7.56 22.535 15.118 22.535 30.236"/><path stroke="#000" stroke-linejoin="round" stroke-linecap="butt" d="M353.955 518.84c0 15.118 11.268 22.677 22.536 30.236 11.268 7.56 22.535 15.118 22.535 30.236"/><path fill="#ccc" d="M411.439 574.88h130.339c17.074 0 30.916 5.908 30.916 13.197 0 7.29-13.842 13.199-30.916 13.199h-130.34c-17.074 0-30.916-5.91-30.916-13.199s13.842-13.198 30.917-13.198z" fill-rule="evenodd"/><path stroke="#cfe2f3" stroke-linejoin="round" stroke-linecap="butt" d="M411.439 574.88h130.339c17.074 0 30.916 5.908 30.916 13.197 0 7.29-13.842 13.199-30.916 13.199h-130.34 0c-17.074 0-30.916-5.91-30.916-13.199s13.842-13.198 30.917-13.198z"/><path fill="#666" d="M399.157 590.203l2.25-.219q.204 1.14.829 1.672.625.531 1.671.531 1.125 0 1.688-.468.562-.485.562-1.11 0-.406-.234-.687-.234-.297-.828-.5-.406-.14-1.86-.5-1.859-.469-2.609-1.14-1.047-.938-1.047-2.298 0-.875.485-1.64.5-.766 1.437-1.157.938-.406 2.25-.406 2.156 0 3.25.953 1.094.938 1.14 2.516l-2.312.11q-.14-.891-.64-1.266-.485-.391-1.453-.391-1.016 0-1.579.406-.375.266-.375.719 0 .406.344.688.438.375 2.125.78 1.688.391 2.5.813.813.422 1.266 1.172.453.735.453 1.813 0 .984-.547 1.843-.547.86-1.547 1.282-1 .421-2.484.421-2.172 0-3.344-1-1.156-1.015-1.39-2.937zm15.047-4.563v1.75h-1.5v3.344q0 1.016.047 1.188.047.156.188.265.156.11.375.11.312 0 .89-.203l.188 1.703q-.766.328-1.735.328-.593 0-1.078-.203-.468-.203-.703-.516-.219-.312-.297-.86-.078-.374-.078-1.546v-3.61h-1v-1.75h1v-1.656l2.203-1.281v2.938h1.5zm.485 0h2.343l1.985 5.891 1.937-5.89h2.266l-2.922 7.984-.531 1.453q-.281.719-.547 1.094-.266.39-.61.625-.328.25-.828.375-.5.14-1.125.14t-1.234-.14l-.203-1.719q.516.11.937.11.766 0 1.125-.454.375-.453.563-1.14l-3.156-8.329zm9.945 8.297v-11.453h2.188v11.453h-2.188zm9.242-2.64l2.188.36q-.422 1.202-1.328 1.843-.907.625-2.282.625-2.156 0-3.203-1.422-.812-1.125-.812-2.86 0-2.062 1.078-3.218 1.078-1.172 2.719-1.172 1.859 0 2.921 1.219 1.079 1.218 1.032 3.75h-5.5q.015.968.515 1.515.516.547 1.282.547.515 0 .859-.281.36-.281.531-.906zm.125-2.219q-.015-.953-.484-1.453-.469-.5-1.14-.5-.72 0-1.188.531-.47.516-.47 1.422h3.282zm11.586 4.86h-2.047v-1.22q-.5.704-1.203 1.063-.687.344-1.39.344-1.422 0-2.454-1.156-1.015-1.157-1.015-3.22 0-2.109.984-3.202 1-1.094 2.516-1.094 1.39 0 2.406 1.156v-4.125h2.203v11.453zm-5.86-4.329q0 1.328.36 1.922.531.86 1.485.86.765 0 1.296-.641.532-.656.532-1.938 0-1.422-.516-2.047-.516-.64-1.328-.64-.781 0-1.313.625-.515.625-.515 1.86zm19.813.11l2.235.718q-.516 1.875-1.72 2.797-1.187.906-3.03.906-2.282 0-3.75-1.562-1.47-1.563-1.47-4.266 0-2.859 1.47-4.437 1.484-1.594 3.89-1.594 2.094 0 3.407 1.25.78.735 1.171 2.11l-2.28.546q-.204-.89-.86-1.406-.64-.515-1.563-.515-1.265 0-2.062.921-.797.907-.797 2.953 0 2.172.781 3.094.781.922 2.031.922.922 0 1.579-.578.671-.594.968-1.86zm3.696-.047q0-1.094.53-2.11.548-1.03 1.532-1.562 1-.547 2.219-.547 1.875 0 3.078 1.219 1.203 1.218 1.203 3.093t-1.219 3.125q-1.203 1.235-3.047 1.235-1.14 0-2.187-.516-1.031-.515-1.578-1.515-.531-1-.531-2.422zm2.25.11q0 1.233.578 1.89.593.656 1.453.656.86 0 1.437-.656.594-.657.594-1.907 0-1.218-.594-1.875-.578-.656-1.437-.656-.86 0-1.453.656-.578.657-.578 1.891zm7.867-4.142h2.031v1.125q1.078-1.312 2.578-1.312.797 0 1.375.328.594.328.969.985.547-.657 1.172-.985.64-.328 1.36-.328.921 0 1.546.375.64.36.953 1.078.219.531.219 1.719v5.312h-2.188v-4.75q0-1.234-.234-1.593-.297-.47-.937-.47-.454 0-.86.282-.406.281-.594.828-.171.547-.171 1.719v3.984h-2.204v-4.547q0-1.218-.125-1.562-.109-.36-.359-.531-.234-.172-.656-.172-.516 0-.922.281-.406.266-.578.781-.172.516-.172 1.72v4.03h-2.203v-8.297zm14.336 0h2.047v1.22q.39-.626 1.062-1.016.688-.391 1.516-.391 1.453 0 2.453 1.14 1.015 1.126 1.015 3.141 0 2.078-1.015 3.235-1.016 1.156-2.469 1.156-.687 0-1.25-.266-.547-.281-1.172-.953v4.188h-2.187V585.64zm2.172 4q0 1.407.546 2.079.563.656 1.36.656.765 0 1.265-.61.516-.609.516-2.015 0-1.297-.531-1.922-.516-.64-1.297-.64-.797 0-1.328.624-.531.61-.531 1.828zm7.148.032q0-1.094.531-2.11.547-1.03 1.532-1.562 1-.547 2.218-.547 1.875 0 3.078 1.219 1.204 1.218 1.204 3.093t-1.22 3.125q-1.202 1.235-3.046 1.235-1.14 0-2.188-.516-1.03-.515-1.578-1.515-.531-1-.531-2.422zm2.25.11q0 1.233.578 1.89.594.656 1.453.656.86 0 1.438-.656.594-.657.594-1.907 0-1.218-.594-1.875-.578-.656-1.438-.656t-1.453.656q-.578.657-.578 1.891zm15.586 4.155h-2.203v-4.234q0-1.344-.14-1.734-.141-.407-.454-.625-.312-.22-.766-.22-.562 0-1.015.313-.453.313-.625.828-.172.516-.172 1.907v3.765h-2.188v-8.297h2.032v1.22q1.093-1.407 2.734-1.407.734 0 1.328.266.61.25.906.656.313.406.438.922.125.515.125 1.484v5.156zm7.023-2.64l2.188.36q-.422 1.202-1.328 1.843-.906.625-2.281.625-2.157 0-3.204-1.422-.812-1.125-.812-2.86 0-2.062 1.078-3.218 1.078-1.172 2.719-1.172 1.86 0 2.922 1.219 1.078 1.218 1.03 3.75h-5.5q.017.968.517 1.515.515.547 1.28.547.516 0 .86-.281.36-.281.531-.906zm.125-2.219q-.015-.953-.484-1.453-.469-.5-1.14-.5-.72 0-1.188.531-.469.516-.469 1.422h3.281zm11.524 4.86h-2.203v-4.235q0-1.344-.14-1.734-.142-.407-.454-.625-.313-.22-.766-.22-.562 0-1.015.313-.453.313-.625.828-.172.516-.172 1.907v3.765h-2.188v-8.297h2.032v1.22q1.093-1.407 2.734-1.407.734 0 1.328.266.61.25.906.656.313.406.438.922.125.515.125 1.484v5.156zm6.023-8.298v1.75h-1.5v3.344q0 1.016.047 1.188.047.156.188.265.156.11.375.11.312 0 .89-.203l.188 1.703q-.766.328-1.735.328-.593 0-1.078-.203-.468-.203-.703-.516-.219-.312-.297-.86-.078-.374-.078-1.546v-3.61h-1v-1.75h1v-1.656l2.203-1.281v2.938h1.5zm.75 5.922l2.203-.328q.141.64.563.969.437.328 1.219.328.843 0 1.28-.312.282-.22.282-.579 0-.25-.156-.421-.156-.157-.734-.282-2.657-.593-3.36-1.078-.984-.672-.984-1.86 0-1.077.844-1.812.859-.734 2.64-.734 1.703 0 2.531.563.829.546 1.141 1.625l-2.062.39q-.141-.484-.516-.734-.36-.266-1.047-.266-.875 0-1.25.235-.25.171-.25.453 0 .234.219.39.297.219 2.047.625 1.765.39 2.453.969.687.594.687 1.64 0 1.141-.953 1.97-.953.812-2.812.812-1.703 0-2.688-.688-.984-.687-1.297-1.875z"/><path d="M113.22 280.304c-9.89 0-14.834 8.245-19.78 16.489-4.944 8.244-9.889 16.488-19.779 16.488"/><path stroke="#000" stroke-linejoin="round" stroke-linecap="butt" d="M113.22 280.304c-9.89 0-14.834 8.245-19.78 16.489-4.944 8.244-9.889 16.488-19.779 16.488"/><path fill="#ccc" d="M37.594 307.96H98.72c8.008 0 14.5 9.98 14.5 22.29 0 12.31-6.492 22.288-14.5 22.288H37.594c-8.008 0-14.5-9.979-14.5-22.289 0-12.31 6.492-22.288 14.5-22.288z" fill-rule="evenodd"/><path stroke="#cfe2f3" stroke-linejoin="round" stroke-linecap="butt" d="M37.594 307.96H98.72c8.008 0 14.5 9.98 14.5 22.29 0 12.31-6.492 22.288-14.5 22.288H37.594h0c-8.008 0-14.5-9.979-14.5-22.289 0-12.31 6.492-22.288 14.5-22.288z"/><path fill="#666" d="M49.39 338.79h-3.298v-6.36q0-2.016-.218-2.594-.203-.593-.688-.922-.469-.328-1.125-.328-.86 0-1.547.47-.672.468-.922 1.25-.25.765-.25 2.843v5.64h-3.296v-12.453h3.062v1.828q1.625-2.109 4.094-2.109 1.094 0 1.984.406.906.391 1.375 1 .469.61.64 1.391.188.766.188 2.203v7.734zm2.581-6.407q0-1.64.797-3.172.813-1.53 2.297-2.343 1.485-.813 3.313-.813 2.828 0 4.625 1.844 1.812 1.828 1.812 4.625 0 2.828-1.828 4.687-1.828 1.86-4.594 1.86-1.703 0-3.265-.766-1.547-.781-2.36-2.266-.797-1.5-.797-3.656zm3.375.188q0 1.843.875 2.828.875.984 2.172.984 1.282 0 2.157-.984.875-.985.875-2.86 0-1.828-.875-2.812-.875-.984-2.157-.984-1.297 0-2.172.984-.875.984-.875 2.844zm23.457 6.218h-3.062v-1.828q-.766 1.063-1.797 1.594-1.031.516-2.094.516-2.14 0-3.672-1.719-1.53-1.734-1.53-4.828 0-3.172 1.484-4.813 1.5-1.656 3.765-1.656 2.094 0 3.61 1.734v-6.187h3.296v17.187zm-8.796-6.5q0 2 .562 2.891.797 1.281 2.219 1.281 1.14 0 1.937-.953.797-.969.797-2.89 0-2.157-.781-3.094-.766-.938-1.969-.938-1.172 0-1.969.938-.796.922-.796 2.765zm19.253 2.532l3.282.562q-.64 1.797-2.016 2.75-1.36.938-3.406.938-3.25 0-4.797-2.125-1.234-1.703-1.234-4.282 0-3.093 1.609-4.843 1.625-1.766 4.094-1.766 2.781 0 4.375 1.844 1.61 1.828 1.547 5.61h-8.25q.03 1.468.796 2.28.766.813 1.891.813.781 0 1.297-.422.531-.422.812-1.36zm.188-3.328q-.047-1.422-.75-2.157-.703-.75-1.703-.75-1.078 0-1.781.782-.704.78-.688 2.125h4.922z"/><path d="M69.252 353.955c0 42.867 21.433 64.3 42.866 85.733 21.433 21.433 42.866 42.866 42.866 85.732"/><path stroke="#000" stroke-linejoin="round" stroke-linecap="butt" d="M69.252 353.955c0 42.867 21.433 64.3 42.866 85.733 21.433 21.433 42.866 42.866 42.866 85.732"/><path d="M69.252 352.856c0 26.653-4.394 39.98-8.787 53.307-4.394 13.327-8.788 26.653-8.788 53.307"/><path stroke="#000" stroke-linejoin="round" stroke-linecap="butt" d="M69.252 352.856c0 26.653-4.394 39.98-8.787 53.307-4.394 13.327-8.788 26.653-8.788 53.307"/><path fill="#ccc" d="M28.37 459.787h58.807c7.704 0 13.95 9.98 13.95 22.29 0 12.309-6.246 22.288-13.95 22.288H28.369c-7.704 0-13.95-9.979-13.95-22.289 0-12.31 6.246-22.289 13.95-22.289z" fill-rule="evenodd"/><path stroke="#cfe2f3" stroke-linejoin="round" stroke-linecap="butt" d="M28.37 459.787h58.807c7.704 0 13.95 9.98 13.95 22.29 0 12.309-6.246 22.288-13.95 22.288H28.369h0c-7.704 0-13.95-9.979-13.95-22.289 0-12.31 6.246-22.289 13.95-22.289z"/><path fill="#666" d="M40.553 490.616h-3.297v-6.36q0-2.015-.218-2.593-.203-.594-.688-.922-.469-.328-1.125-.328-.86 0-1.547.469-.672.469-.922 1.25-.25.765-.25 2.844v5.64H29.21v-12.453h3.062v1.828q1.625-2.11 4.094-2.11 1.093 0 1.984.407.906.39 1.375 1t.64 1.39q.188.766.188 2.204v7.734zm3.239-12.453h3.078v1.828q.593-.937 1.609-1.515 1.031-.594 2.266-.594 2.172 0 3.672 1.703 1.515 1.703 1.515 4.734 0 3.125-1.531 4.86-1.516 1.718-3.672 1.718-1.031 0-1.875-.406-.844-.422-1.766-1.406v6.266h-3.296v-17.188zm3.265 6.016q0 2.093.828 3.11.828 1 2.032 1 1.14 0 1.906-.923.765-.922.765-3.015 0-1.97-.796-2.907-.782-.953-1.938-.953-1.203 0-2 .938-.797.922-.797 2.75zm11.254-6.016h3.031v1.703q1.625-1.984 3.875-1.984 1.203 0 2.078.5.875.484 1.438 1.484.828-1 1.766-1.484.953-.5 2.03-.5 1.376 0 2.313.562.953.563 1.422 1.64.344.798.344 2.58v7.952H73.31v-7.11q0-1.859-.328-2.39-.469-.703-1.406-.703-.703 0-1.313.422t-.875 1.234q-.265.813-.265 2.563v5.984h-3.297v-6.828q0-1.812-.172-2.328-.172-.531-.547-.781-.375-.266-1-.266-.766 0-1.375.406-.61.407-.875 1.188-.266.765-.266 2.562v6.047h-3.28v-12.453z"/><path fill="#ccc" d="M127.17 526.787h58.807c7.704 0 13.95 9.98 13.95 22.29 0 12.309-6.246 22.288-13.95 22.288H127.17c-7.704 0-13.95-9.979-13.95-22.289 0-12.31 6.246-22.289 13.95-22.289z" fill-rule="evenodd"/><path stroke="#cfe2f3" stroke-linejoin="round" stroke-linecap="butt" d="M127.17 526.787h58.807c7.704 0 13.95 9.98 13.95 22.29 0 12.309-6.246 22.288-13.95 22.288H127.17h0c-7.704 0-13.95-9.979-13.95-22.289 0-12.31 6.246-22.289 13.95-22.289z"/><path fill="#666" d="M136.041 551.304v-2.907h7.485v6.844q-1.094 1.063-3.172 1.875-2.063.797-4.172.797-2.703 0-4.703-1.125-2-1.14-3.016-3.234-1-2.11-1-4.594 0-2.672 1.125-4.75 1.125-2.094 3.281-3.219 1.657-.844 4.125-.844 3.188 0 4.985 1.344 1.812 1.328 2.328 3.703l-3.453.641q-.36-1.266-1.36-2t-2.5-.734q-2.28 0-3.625 1.453-1.343 1.437-1.343 4.265 0 3.063 1.359 4.594 1.36 1.531 3.563 1.531 1.093 0 2.187-.422 1.094-.437 1.89-1.046v-2.172h-3.984zm10.653-7.828v-3.047h3.296v3.047h-3.296zm0 14.14v-12.453h3.296v12.453h-3.296zm12.386-12.453v2.625h-2.25v5.016q0 1.531.063 1.781.062.25.281.422.234.156.563.156.453 0 1.328-.312l.281 2.546q-1.156.5-2.61.5-.89 0-1.609-.296-.703-.297-1.047-.766-.328-.484-.453-1.297-.11-.578-.11-2.312v-5.438h-1.515v-2.625h1.516v-2.469l3.312-1.922v4.391h2.25z"/><path fill="#ccc" d="M192.308 207.766h61.126c8.008 0 14.5 7.383 14.5 16.49 0 9.106-6.492 16.489-14.5 16.489h-61.126c-8.008 0-14.5-7.383-14.5-16.49 0-9.106 6.492-16.489 14.5-16.489z" fill-rule="evenodd"/><path stroke="#cfe2f3" stroke-linejoin="round" stroke-linecap="butt" d="M192.308 207.766h61.126c8.008 0 14.5 7.383 14.5 16.49 0 9.106-6.492 16.489-14.5 16.489h-61.126 0c-8.008 0-14.5-7.383-14.5-16.49 0-9.106 6.492-16.489 14.5-16.489z"/><path fill="#666" d="M192.228 230.116v-11.454h3.703q2.11 0 2.75.172.984.25 1.64 1.125.672.86.672 2.219 0 1.063-.39 1.781-.375.719-.969 1.125-.578.407-1.187.547-.829.156-2.407.156h-1.5v4.329h-2.312zm2.312-9.516v3.25h1.266q1.36 0 1.812-.172.47-.187.735-.562.265-.391.265-.907 0-.625-.375-1.031-.359-.406-.921-.5-.422-.078-1.672-.078h-1.11zm7.297 1.219h2.344l1.984 5.89 1.938-5.89h2.265l-2.921 7.984-.532 1.453q-.28.719-.547 1.094-.265.39-.609.625-.328.25-.828.375-.5.14-1.125.14t-1.234-.14l-.204-1.719q.516.11.938.11.766 0 1.125-.454.375-.453.562-1.14l-3.156-8.328zm13.742 0v1.75h-1.5v3.343q0 1.016.047 1.188.047.156.188.266.156.109.375.109.312 0 .89-.203l.188 1.703q-.766.328-1.734.328-.594 0-1.079-.203-.468-.203-.703-.516-.218-.312-.297-.86-.078-.374-.078-1.546v-3.61h-1v-1.75h1v-1.656l2.203-1.28v2.937h1.5zm3.72-3.157v4.204q1.062-1.235 2.53-1.235.766 0 1.375.281.61.282.907.72.312.437.422.968.125.531.125 1.64v4.876h-2.204v-4.391q0-1.297-.125-1.64-.125-.36-.437-.563-.313-.219-.797-.219-.547 0-.984.266-.422.265-.625.812-.188.531-.188 1.578v4.157h-2.203v-11.454h2.203zm7.07 7.188q0-1.094.53-2.11.548-1.03 1.532-1.562 1-.547 2.219-.547 1.875 0 3.078 1.219 1.203 1.219 1.203 3.094 0 1.875-1.219 3.125-1.203 1.234-3.047 1.234-1.14 0-2.187-.516-1.031-.515-1.578-1.515-.532-1-.532-2.422zm2.25.11q0 1.234.578 1.89.593.656 1.453.656.86 0 1.437-.656.594-.656.594-1.906 0-1.22-.594-1.875-.578-.657-1.437-.657-.86 0-1.453.657-.579.656-.579 1.89zm15.585 4.156h-2.203v-4.235q0-1.344-.14-1.734-.14-.406-.453-.625-.313-.219-.766-.219-.563 0-1.016.313-.453.312-.625.828-.172.515-.172 1.906v3.766h-2.187v-8.297h2.031v1.218q1.094-1.406 2.735-1.406.734 0 1.328.266.61.25.906.656.312.406.437.922t.125 1.484v5.157z"/><path fill="#cfe2f3" d="M322.341 383.034h48.284v52.063H322.34z" fill-rule="evenodd"/><path fill="#a5b4c2" d="M370.625 383.034l16.094-16.094v52.063l-16.094 16.094z" fill-rule="evenodd"/><path fill="#d8e7f5" d="M322.341 383.034l16.095-16.094h48.283l-16.094 16.094z" fill-rule="evenodd"/><path d="M322.341 383.034l16.095-16.094h48.283v52.063l-16.094 16.094H322.34zm0 0h48.284l16.094-16.094m-16.094 16.094v52.063"/><path stroke="#000" stroke-linejoin="round" stroke-linecap="butt" d="M322.341 383.034l16.095-16.094h48.283v52.063l-16.094 16.094H322.34zm0 0h48.284l16.094-16.094m-16.094 16.094v52.063"/><path fill="#000" d="M331.92 409.398q0-2.14 1.14-3.344 1.156-1.218 2.969-1.218 1.203 0 2.156.578.953.562 1.453 1.578.5 1.015.5 2.312t-.531 2.328q-.531 1.032-1.5 1.563-.953.531-2.078.531-1.219 0-2.172-.578-.953-.594-1.453-1.594-.485-1.015-.485-2.156zm1.171.016q0 1.562.828 2.453.844.89 2.11.89 1.281 0 2.11-.89.827-.906.827-2.578 0-1.047-.36-1.828-.343-.782-1.03-1.204-.688-.437-1.532-.437-1.203 0-2.078.828-.875.828-.875 2.766zm8.162-.016q0-2.14 1.14-3.344 1.157-1.218 2.97-1.218 1.203 0 2.156.578.953.562 1.453 1.578.5 1.015.5 2.312t-.531 2.328q-.531 1.032-1.5 1.563-.953.531-2.078.531-1.22 0-2.172-.578-.953-.594-1.453-1.594-.485-1.015-.485-2.156zm1.172.016q0 1.562.828 2.453.844.89 2.11.89 1.28 0 2.11-.89.827-.906.827-2.578 0-1.047-.36-1.828-.343-.782-1.03-1.204-.688-.437-1.532-.437-1.203 0-2.078.828-.875.828-.875 2.766zm8.506 4.172v-8.594h3.25q.844 0 1.297.078.64.11 1.062.406.438.297.688.828.266.532.266 1.172 0 1.094-.704 1.86-.687.75-2.515.75h-2.203v3.5h-1.14zm1.14-4.5h2.22q1.109 0 1.562-.407.469-.422.469-1.172 0-.53-.282-.906-.265-.39-.703-.515-.297-.079-1.062-.079h-2.203v3.079z"/><path d="M270.412 350.657c0 29.197 25.968 58.394 51.937 58.394"/><path stroke="#000" stroke-linejoin="round" stroke-linecap="butt" d="M270.412 350.657c0 29.197 25.968 58.394 51.937 58.394"/><path d="M222.87 240.745c0 12.363 11.883 18.546 23.765 24.727 11.881 6.181 23.763 12.36 23.763 24.721"/><path stroke="#000" stroke-linejoin="round" stroke-linecap="butt" d="M222.87 240.745c0 12.363 11.883 18.546 23.765 24.727 11.881 6.181 23.763 12.36 23.763 24.721"/></g></svg>